<svg width="720" height="200" viewBox="0 0 720 200" fill="none" xmlns="http://www.w3.org/2000/svg">
  <g>
    <circle cx="100" cy="100" r="84" fill="#1DB954"/>
    <path d="M153.6 123.6C151.5 126.8 147.2 127.8 144 125.7C119.9 111 88.9 107.7 51.7 116C48 116.9 44.4 114.5 43.5 110.8C42.7 107.1 45 103.4 48.7 102.6C89.5 93.6 123.8 97.4 151.3 114.2C154.5 116.2 155.5 120.4 153.6 123.6Z" fill="#0B0B0B"/>
    <path d="M165.1 102.7C162.5 106.5 157.4 107.6 153.6 105C125.8 87.7 83.1 82.6 50.4 92.6C46.2 93.9 41.7 91.6 40.4 87.4C39.1 83.2 41.4 78.7 45.6 77.4C82.9 66 130.4 71.6 161.8 91.1C165.6 93.6 166.7 98.8 165.1 102.7Z" fill="#0B0B0B"/>
    <path d="M166 80.9C133.8 61.7 83.7 58.9 52.9 68.2C48 69.7 42.8 66.9 41.3 62C39.8 57.1 42.6 51.9 47.5 50.4C83.1 39.6 138.4 42.6 175.4 64.7C179.8 67.3 181.3 73 178.6 77.4C176 81.8 170.4 83.3 166 80.9Z" fill="#0B0B0B"/>
  </g>
  <g fill="#FFFFFF">
    <path d="M246 129V70h25.7l23.6 38.5h.3V70H320v59h-24.6l-24.7-40.3h-.4V129H246Zm109 0V70h21v59h-21Zm56 0V70h20.9v59H411Zm56 0V70h43.6v16h-22.7v6.5H530V108h-19.1v21H467Zm80.5 0V86.6H532V70h59.2v16.6h-15.5V129h-21.2Zm67.7 1.3c-9.4 0-16.8-2.6-22.2-7.8c-5.4-5.2-8.1-12.6-8.1-22.2V70h21v30.5c0 4.8.9 8.3 2.8 10.7c1.9 2.3 4.8 3.5 8.8 3.5c3.9 0 6.8-1.2 8.7-3.5c1.9-2.4 2.8-5.9 2.8-10.7V70h21v30.3c0 9.6-2.7 17-8.1 22.2c-5.4 5.2-12.8 7.8-22.1 7.8Z"/>
  </g>
</svg>
