<svg width="360" height="120" viewBox="0 0 360 120" fill="none" xmlns="http://www.w3.org/2000/svg">
  <g>
    <circle cx="58" cy="60" r="24" stroke="#FFFFFF" stroke-width="5"/>
    <path d="M72.2 57.1C71.5 58.1 70.2 58.4 69.2 57.8C62.3 53.5 53.2 52.6 42.3 55.1C41.1 55.4 39.9 54.6 39.6 53.5C39.4 52.3 40.1 51.1 41.3 50.8C53.4 48.1 63.6 49.2 71.6 54.2C72.6 54.8 72.9 56.1 72.2 57.1Z" fill="#FFFFFF"/>
    <path d="M75.4 50.9C74.6 52.1 73 52.4 71.8 51.6C63.9 46.7 51.5 45.4 42.3 48.2C40.9 48.6 39.4 47.8 39 46.4C38.6 45 39.4 43.5 40.8 43.1C51.3 39.9 64.8 41.4 74.7 47.5C75.9 48.3 76.2 49.8 75.4 50.9Z" fill="#FFFFFF"/>
    <path d="M75.6 44.4C66.6 39 52.6 38.2 44 40.8C42.4 41.3 40.6 40.4 40.1 38.8C39.6 37.2 40.5 35.5 42.2 35C52.1 32 67.5 32.9 77.8 39.1C79.3 40 79.8 41.9 78.9 43.4C78 44.8 77.1 45.3 75.6 44.4Z" fill="#FFFFFF"/>
  </g>
  <text x="95" y="75" fill="#FFFFFF" font-family="Poppins, Segoe UI, Arial, sans-serif" font-size="52" font-weight="700" letter-spacing="0.2">Spotify</text>
</svg>
